# xmcd CD database file
#
# Track frame offsets:
#	182
#	8662
#	19370
#	27902
#	38422
#	51557
#	63350
#	74970
#	85007
#	93977
#	104312
#	116582
#	128835
#	137285
#	146455
#	158355
#
# Disc length: 2260 seconds
#
# Revision: 3
# Processed by: cddbd v1.5.2PL0 Copyright (c) Steve Scherf et al.
# Submitted via: CDex 1.50
#
DISCID=cd08d210
DTITLE=Various Artist - 16 All Time Country Greats - CD 8
DYEAR=1989
DGENRE=Country
TTITLE0=Johnny Cash - Country Boy
TTITLE1=Frankie Laine - A Woman In Love
TTITLE2=Willie Nelson - Slow Down Old World
TTITLE3=Jim Nesbitt - Running Bear
TTITLE4=Freddie Fender - Going Out With The Tide
TTITLE5=Dolly Parton - Letter To Heaven
TTITLE6=Kenny Rogers - Poem For A Little Lady
TTITLE7=David Huston - With One Exeption
TTITLE8=Waylon Jennings - Love's Gonna Live Here
TTITLE9=Don Williams - Take My Hand For A While
TTITLE10=Patsy Cline - Crazy
TTITLE11=Faron Young - Sweet Dreams
TTITLE12=Harden Trio - Sneaking Across The Border
TTITLE13=Roy Drusky - Peel Me A Nanna
TTITLE14=Price Mitchell - She's Lonesome Again
TTITLE15=Razzy Baily - 9999999 Tears
EXTD=YEAR: 1989
EXTT0=
EXTT1=
EXTT2=
EXTT3=
EXTT4=
EXTT5=
EXTT6=
EXTT7=
EXTT8=
EXTT9=
EXTT10=
EXTT11=
EXTT12=
EXTT13=
EXTT14=
EXTT15=
PLAYORDER=
